<svg width="145" height="24" viewBox="0 0 145 24" fill="none" xmlns="http://www.w3.org/2000/svg">
<path d="M0.312 0.599998H5.528C7.34133 0.599998 8.664 1.02667 9.496 1.88C10.328 2.712 10.744 4.00267 10.744 5.752V7.128C10.744 9.45333 9.976 10.9253 8.44 11.544V11.608C9.29333 11.864 9.89067 12.3867 10.232 13.176C10.5947 13.9653 10.776 15.0213 10.776 16.344V20.28C10.776 20.92 10.7973 21.4427 10.84 21.848C10.8827 22.232 10.9893 22.616 11.16 23H7.576C7.448 22.6373 7.36267 22.296 7.32 21.976C7.27733 21.656 7.256 21.08 7.256 20.248V16.152C7.256 15.128 7.08533 14.4133 6.744 14.008C6.424 13.6027 5.85867 13.4 5.048 13.4H3.832V23H0.312V0.599998ZM5.112 10.2C5.816 10.2 6.33867 10.0187 6.68 9.656C7.04267 9.29333 7.224 8.68533 7.224 7.832V6.104C7.224 5.29333 7.07467 4.70667 6.776 4.344C6.49867 3.98133 6.05067 3.8 5.432 3.8H3.832V10.2H5.112ZM17.9863 23.32C16.2583 23.32 14.9356 22.8293 14.0183 21.848C13.1009 20.8667 12.6423 19.48 12.6423 17.688V5.912C12.6423 4.12 13.1009 2.73333 14.0183 1.752C14.9356 0.770665 16.2583 0.279999 17.9863 0.279999C19.7143 0.279999 21.0369 0.770665 21.9543 1.752C22.8716 2.73333 23.3303 4.12 23.3303 5.912V17.688C23.3303 19.48 22.8716 20.8667 21.9543 21.848C21.0369 22.8293 19.7143 23.32 17.9863 23.32ZM17.9863 20.12C19.2023 20.12 19.8103 19.384 19.8103 17.912V5.688C19.8103 4.216 19.2023 3.48 17.9863 3.48C16.7703 3.48 16.1623 4.216 16.1623 5.688V17.912C16.1623 19.384 16.7703 20.12 17.9863 20.12ZM25.3908 0.599998H30.7028C32.5161 0.599998 33.8388 1.02667 34.6708 1.88C35.5028 2.712 35.9188 4.00267 35.9188 5.752V6.648C35.9188 7.8 35.7268 8.73867 35.3428 9.464C34.9801 10.1893 34.4148 10.712 33.6468 11.032V11.096C35.3961 11.6933 36.2708 13.2507 36.2708 15.768V17.688C36.2708 19.416 35.8121 20.7387 34.8948 21.656C33.9988 22.552 32.6761 23 30.9268 23H25.3908V0.599998ZM30.2868 9.72C30.9908 9.72 31.5134 9.53867 31.8548 9.176C32.2174 8.81333 32.3988 8.20533 32.3988 7.352V6.104C32.3988 5.29333 32.2494 4.70667 31.9508 4.344C31.6734 3.98133 31.2254 3.8 30.6068 3.8H28.9108V9.72H30.2868ZM30.9268 19.8C31.5454 19.8 32.0041 19.64 32.3028 19.32C32.6014 18.9787 32.7508 18.4027 32.7508 17.592V15.64C32.7508 14.616 32.5694 13.912 32.2068 13.528C31.8654 13.1227 31.2894 12.92 30.4788 12.92H28.9108V19.8H30.9268ZM38.0083 0.599998H47.6083V3.8H41.5283V9.72H46.3603V12.92H41.5283V19.8H47.6083V23H38.0083V0.599998ZM49.3133 0.599998H54.5293C56.3426 0.599998 57.6653 1.02667 58.4973 1.88C59.3293 2.712 59.7453 4.00267 59.7453 5.752V7.128C59.7453 9.45333 58.9773 10.9253 57.4413 11.544V11.608C58.2946 11.864 58.8919 12.3867 59.2333 13.176C59.5959 13.9653 59.7773 15.0213 59.7773 16.344V20.28C59.7773 20.92 59.7986 21.4427 59.8413 21.848C59.8839 22.232 59.9906 22.616 60.1613 23H56.5773C56.4493 22.6373 56.3639 22.296 56.3213 21.976C56.2786 21.656 56.2573 21.08 56.2573 20.248V16.152C56.2573 15.128 56.0866 14.4133 55.7453 14.008C55.4253 13.6027 54.8599 13.4 54.0493 13.4H52.8333V23H49.3133V0.599998ZM54.1133 10.2C54.8173 10.2 55.3399 10.0187 55.6813 9.656C56.0439 9.29333 56.2253 8.68533 56.2253 7.832V6.104C56.2253 5.29333 56.0759 4.70667 55.7773 4.344C55.4999 3.98133 55.0519 3.8 54.4333 3.8H52.8333V10.2H54.1133ZM64.589 3.8H60.909V0.599998H71.789V3.8H68.109V23H64.589V3.8ZM82.9703 23.32C81.2636 23.32 79.9623 22.84 79.0663 21.88C78.1703 20.8987 77.7223 19.5013 77.7223 17.688V5.912C77.7223 4.09867 78.1703 2.712 79.0663 1.752C79.9623 0.770665 81.2636 0.279999 82.9703 0.279999C84.6769 0.279999 85.9783 0.770665 86.8743 1.752C87.7703 2.712 88.2183 4.09867 88.2183 5.912V7.832H84.8903V5.688C84.8903 4.216 84.2823 3.48 83.0663 3.48C81.8503 3.48 81.2423 4.216 81.2423 5.688V17.944C81.2423 19.3947 81.8503 20.12 83.0663 20.12C84.2823 20.12 84.8903 19.3947 84.8903 17.944V13.56H83.1303V10.36H88.2183V17.688C88.2183 19.5013 87.7703 20.8987 86.8743 21.88C85.9783 22.84 84.6769 23.32 82.9703 23.32ZM92.8783 0.599998H97.6463L101.294 23H97.7743L97.1343 18.552V18.616H93.1343L92.4943 23H89.2303L92.8783 0.599998ZM96.7183 15.576L95.1503 4.504H95.0863L93.5503 15.576H96.7183ZM102.682 0.599998H107.898C109.711 0.599998 111.034 1.02667 111.866 1.88C112.698 2.712 113.114 4.00267 113.114 5.752V7.128C113.114 9.45333 112.346 10.9253 110.81 11.544V11.608C111.663 11.864 112.261 12.3867 112.602 13.176C112.965 13.9653 113.146 15.0213 113.146 16.344V20.28C113.146 20.92 113.167 21.4427 113.21 21.848C113.253 22.232 113.359 22.616 113.53 23H109.946C109.818 22.6373 109.733 22.296 109.69 21.976C109.647 21.656 109.626 21.08 109.626 20.248V16.152C109.626 15.128 109.455 14.4133 109.114 14.008C108.794 13.6027 108.229 13.4 107.418 13.4H106.202V23H102.682V0.599998ZM107.482 10.2C108.186 10.2 108.709 10.0187 109.05 9.656C109.413 9.29333 109.594 8.68533 109.594 7.832V6.104C109.594 5.29333 109.445 4.70667 109.146 4.344C108.869 3.98133 108.421 3.8 107.802 3.8H106.202V10.2H107.482ZM120.228 23.32C118.543 23.32 117.252 22.84 116.356 21.88C115.482 20.92 115.044 19.5653 115.044 17.816V5.784C115.044 4.03467 115.482 2.68 116.356 1.72C117.252 0.759999 118.543 0.279999 120.228 0.279999C121.914 0.279999 123.194 0.759999 124.068 1.72C124.964 2.68 125.412 4.03467 125.412 5.784V8.152H122.084V5.56C122.084 4.17333 121.498 3.48 120.324 3.48C119.151 3.48 118.564 4.17333 118.564 5.56V18.072C118.564 19.4373 119.151 20.12 120.324 20.12C121.498 20.12 122.084 19.4373 122.084 18.072V14.648H125.412V17.816C125.412 19.5653 124.964 20.92 124.068 21.88C123.194 22.84 121.914 23.32 120.228 23.32ZM127.198 0.599998H130.718V23H127.198V0.599998ZM135.755 0.599998H140.523L144.171 23H140.651L140.011 18.552V18.616H136.011L135.371 23H132.107L135.755 0.599998ZM139.595 15.576L138.027 4.504H137.963L136.427 15.576H139.595Z" fill="#C7C7C7"/>
</svg>
